<?xml version="1.0" encoding="UTF-8"?>
<svg version="1.1" xmlns="http://www.w3.org/2000/svg" width="2000" height="2000">
<path d="M0 0 C1.10235992 0.00060425 2.20471985 0.0012085 3.34048462 0.00183105 C30.35232253 0.04176526 57.08757811 1.5851941 83.9921875 3.87890625 C84.97520906 3.96245173 85.95823063 4.0459972 86.97104073 4.13207436 C114.17976582 6.45393849 141.35702354 9.1137547 168.53531641 11.76365125 C174.19528464 12.3153308 179.85553194 12.86410245 185.5158543 13.4121353 C191.73585321 14.01436602 197.95572684 14.61787951 204.17552376 15.22219276 C206.78413663 15.47559561 209.39277248 15.72876204 212.00143242 15.98167992 C215.61101199 16.33193973 219.22044344 16.68368701 222.82983398 17.03588867 C224.41516937 17.18938278 224.41516937 17.18938278 226.03253174 17.34597778 C227.01896164 17.44254166 228.00539154 17.53910553 229.02171326 17.63859558 C230.29071299 17.76215817 230.29071299 17.76215817 231.58534908 17.88821697 C235.1872131 18.27463692 238.78044072 18.73818009 242.375 19.1875 C242.375 101.0275 242.375 182.8675 242.375 267.1875 C170.3125 267.5625 170.3125 267.5625 147.69116211 267.66552734 C140.90698243 267.70550666 140.90698243 267.70550666 134.12281799 267.74795532 C131.13799969 267.76656614 128.15320911 267.78005824 125.16835022 267.79019165 C89.89810494 267.73355394 89.89810494 267.73355394 55.375 274.1875 C54.24707031 274.51234375 53.11914062 274.8371875 51.95703125 275.171875 C25.82128477 283.62845885 1.84888465 300.22232047 -14.625 322.1875 C-15.73294922 323.66476562 -15.73294922 323.66476562 -16.86328125 325.171875 C-33.2818964 347.97078102 -43.74936325 375.04749545 -43.78321838 403.34973145 C-43.79061287 404.67986267 -43.79061287 404.67986267 -43.79815674 406.03686523 C-43.81345722 408.99918433 -43.82187315 411.96148215 -43.83032227 414.92382812 C-43.84004394 417.08746273 -43.85018975 419.25109546 -43.86072445 421.41472626 C-43.88772005 427.19889667 -43.90892506 432.98307464 -43.92891693 438.76727295 C-43.94857081 444.19870589 -43.97346516 449.63010992 -43.9979248 455.06152344 C-44.06637238 470.93682717 -44.12642522 486.81216619 -44.1875 502.6875 C-44.331875 538.1625 -44.47625 573.6375 -44.625 610.1875 C46.455 610.1875 137.535 610.1875 231.375 610.1875 C223.32117124 666.56430133 223.32117124 666.56430133 220.70629883 684.36523438 C220.3964175 686.4796444 220.08661119 688.59406543 219.77687073 690.70849609 C218.96385753 696.25680976 218.14972587 701.80495864 217.33523774 707.35305595 C216.64647248 712.04540592 215.95825502 716.73783619 215.27000731 721.43026209 C213.64580309 732.50376651 212.02060611 743.5771249 210.39477539 754.65039062 C208.73163471 765.97791685 207.07040489 777.30572222 205.41004926 788.63365698 C203.96644252 798.48225989 202.52156547 808.33067589 201.0757162 818.17894983 C200.21981873 824.00893731 199.36438594 829.8389919 198.51023293 835.66923523 C197.70968404 841.13326069 196.90752726 846.59704788 196.10422325 852.06066895 C195.81346265 854.04002272 195.52323065 856.01945424 195.23362732 857.99897766 C193.07485102 872.7514097 190.73092433 887.46297291 188.375 902.1875 C111.485 902.1875 34.595 902.1875 -44.625 902.1875 C-44.625 1135.4975 -44.625 1368.8075 -44.625 1609.1875 C-148.245 1609.1875 -251.865 1609.1875 -358.625 1609.1875 C-358.625 1375.8775 -358.625 1142.5675 -358.625 902.1875 C-442.775 902.1875 -526.925 902.1875 -613.625 902.1875 C-613.625 805.8275 -613.625 709.4675 -613.625 610.1875 C-529.475 610.1875 -445.325 610.1875 -358.625 610.1875 C-358.65980469 590.23925781 -358.69460938 570.29101562 -358.73046875 549.73828125 C-358.74580599 537.06445233 -358.76039149 524.39062917 -358.77148438 511.71679688 C-358.77735653 505.05265277 -358.78341756 498.38850888 -358.78979492 491.72436523 C-358.79058617 490.88931322 -358.79137741 490.0542612 -358.79219264 489.19390458 C-358.80518198 475.77511942 -358.8288005 462.35637347 -358.85645839 448.93761144 C-358.88467719 435.12985233 -358.90121074 421.32211351 -358.90726548 407.51432675 C-358.91134809 399.01858903 -358.92416256 390.52296218 -358.9487494 382.02725866 C-358.96481093 376.17327012 -358.96935518 370.3193375 -358.96550413 364.46532861 C-358.96361364 361.10575113 -358.96789107 357.74651674 -358.98261642 354.38694954 C-359.07977261 331.04424499 -357.65778259 307.73713562 -353 284.8125 C-352.62041138 282.91407349 -352.62041138 282.91407349 -352.2331543 280.97729492 C-340.08659132 221.80859186 -312.58565564 166.47666646 -272.625 121.1875 C-271.9865918 120.46151611 -271.34818359 119.73553223 -270.69042969 118.98754883 C-265.22229429 112.83498067 -259.54266793 106.91889986 -253.72363281 101.10083008 C-252.2529359 99.62794028 -250.79046466 98.14719735 -249.328125 96.66601562 C-243.09732521 90.3981258 -236.57327088 84.65769162 -229.625 79.1875 C-228.36318915 78.17459389 -227.10145781 77.16158871 -225.83984375 76.1484375 C-214.87563822 67.46465696 -203.49284135 59.58701842 -191.625 52.1875 C-191.00834473 51.80223145 -190.39168945 51.41696289 -189.75634766 51.02001953 C-167.61306003 37.30683057 -144.20073232 26.73341156 -119.625 18.1875 C-118.15546875 17.67364746 -118.15546875 17.67364746 -116.65625 17.14941406 C-91.70962216 8.59152944 -64.86877409 3.49373015 -38.625 1.1875 C-37.57699219 1.0939624 -36.52898438 1.0004248 -35.44921875 0.90405273 C-23.64181511 -0.0179916 -11.83699002 -0.01202618 0 0 Z " fill="#FFFFFF" transform="translate(1201.625,389.8125)"/>
</svg>
