<?xml version="1.0" encoding="UTF-8"?>
<svg version="1.1" xmlns="http://www.w3.org/2000/svg" width="256" height="256">
<path d="M0 0 C17.98738043 17.48069366 30.28421899 38.03574584 36.49609375 62.42578125 C36.81578125 63.67875 37.13546875 64.93171875 37.46484375 66.22265625 C44.98055667 99.53633545 37.72890807 133.54174226 20.49609375 162.42578125 C14.36713147 172.00015275 6.72461761 180.5986488 -1.50390625 188.42578125 C-2.15101563 189.06773437 -2.798125 189.7096875 -3.46484375 190.37109375 C-14.74282235 201.12451521 -28.27929038 208.32704217 -42.50390625 214.42578125 C-43.39464844 214.81894531 -44.28539062 215.21210938 -45.203125 215.6171875 C-48.64877976 216.82813917 -51.02342604 216.39258131 -54.50390625 215.42578125 C-57.97608203 211.26676304 -57.87250175 207.18237902 -57.7265625 202.01171875 C-57.71757431 201.20143219 -57.70858612 200.39114563 -57.69932556 199.55630493 C-57.6694018 196.97068701 -57.61971253 194.38601514 -57.56640625 191.80078125 C-56.93961229 171.90494563 -56.93961229 171.90494563 -63.50390625 153.42578125 C-64.17445285 152.09439495 -64.84158958 150.76128073 -65.50390625 149.42578125 C-64.96088867 149.33079346 -64.41787109 149.23580566 -63.85839844 149.13793945 C-47.1421867 146.15795461 -30.37032218 142.607697 -19.12890625 128.61328125 C-10.76446213 116.19919272 -8.27317373 102.87010245 -8.12890625 88.17578125 C-8.11496826 87.26530029 -8.10103027 86.35481934 -8.08666992 85.41674805 C-8.14745515 76.70551412 -10.21460832 69.09508305 -14.50390625 61.48828125 C-14.99890625 60.59238281 -15.49390625 59.69648437 -16.00390625 58.7734375 C-17.35716569 56.40647072 -17.35716569 56.40647072 -19.2421875 54.93359375 C-20.50390625 53.42578125 -20.50390625 53.42578125 -20.359375 51.0078125 C-20.13894531 50.09386719 -19.91851562 49.17992188 -19.69140625 48.23828125 C-17.85775822 40.4702814 -18.42057031 33.62849662 -20.00390625 25.92578125 C-20.14699219 25.19875 -20.29007813 24.47171875 -20.4375 23.72265625 C-20.78624323 21.95569054 -21.14410348 20.19052816 -21.50390625 18.42578125 C-33.7311155 20.25986264 -44.21353376 24.56553292 -54.50390625 31.42578125 C-56.421875 31.47265625 -56.421875 31.47265625 -58.69140625 31.17578125 C-59.57957031 31.06878906 -60.46773437 30.96179688 -61.3828125 30.8515625 C-63.64158558 30.54341949 -65.89927468 30.22729569 -68.15625 29.90625 C-82.30841707 27.93757584 -95.58540615 27.96833787 -109.67871094 30.3581543 C-121.75346795 32.40503212 -121.75346795 32.40503212 -127.12890625 28.73828125 C-136.04873256 23.08147986 -145.03957919 19.80591887 -155.50390625 18.42578125 C-158.77460867 31.12708576 -158.77460867 31.12708576 -157.765625 43.92578125 C-156.53056704 48.38465715 -155.8214141 51.10676792 -158.01171875 55.33984375 C-159.45509279 57.35843696 -160.91414947 59.36588623 -162.38671875 61.36328125 C-170.72699144 73.42743954 -170.09696938 90.25538475 -167.80859375 104.234375 C-165.11970444 117.92421822 -158.97524025 130.02178954 -147.69140625 138.55078125 C-137.46450215 144.96010813 -124.35945146 148.07750356 -112.50390625 149.42578125 C-112.50390625 152.79695608 -113.007954 153.44744466 -114.87890625 156.11328125 C-117.52470277 160.15318019 -118.57679883 163.70596167 -119.50390625 168.42578125 C-129.50450626 171.51420184 -137.7027441 173.08709345 -147.50390625 168.42578125 C-152.08382489 165.54071816 -154.96367091 161.89574514 -157.94140625 157.42578125 C-161.68203068 151.82751037 -166.03563556 147.58187148 -172.50390625 145.42578125 C-174.06509053 145.3583726 -175.62893145 145.34063669 -177.19140625 145.36328125 C-177.99964844 145.37230469 -178.80789062 145.38132813 -179.640625 145.390625 C-180.25550781 145.40222656 -180.87039062 145.41382813 -181.50390625 145.42578125 C-180.06529847 148.96108334 -178.38474491 150.43160815 -175.25390625 152.55078125 C-169.2302845 157.0805448 -166.39667549 162.68094749 -163.05078125 169.30078125 C-158.4659289 178.18091633 -153.73574226 183.46694959 -144.1015625 186.74609375 C-136.03606478 188.26986856 -127.67557006 187.72164987 -119.50390625 187.42578125 C-119.41653889 191.15479939 -119.36339143 194.8835529 -119.31640625 198.61328125 C-119.29126953 199.66837891 -119.26613281 200.72347656 -119.24023438 201.81054688 C-119.23056641 202.83212891 -119.22089844 203.85371094 -119.2109375 204.90625 C-119.19522705 205.84364014 -119.1795166 206.78103027 -119.16333008 207.74682617 C-119.5738979 210.97633205 -120.56489961 212.82908646 -122.50390625 215.42578125 C-129.82694272 217.97743418 -136.92769362 213.55303947 -143.50390625 210.42578125 C-175.15930796 194.77948671 -199.51127456 167.93516899 -210.94140625 134.36328125 C-221.4693282 101.06683909 -218.51624921 64.9654851 -202.52978516 33.97900391 C-196.70516559 23.02585772 -189.77071928 13.62360826 -181.50390625 4.42578125 C-180.73433594 3.55953125 -179.96476562 2.69328125 -179.171875 1.80078125 C-160.29629565 -18.26457057 -132.67949357 -31.06639071 -105.50390625 -34.57421875 C-104.57320313 -34.69667969 -103.6425 -34.81914063 -102.68359375 -34.9453125 C-64.49535895 -38.90087135 -27.99830328 -25.93762816 0 0 Z " fill="#FEFEFE" transform="translate(216.50390625,37.57421875)"/>
</svg>
