<?xml version="1.0" encoding="UTF-8"?>
<svg version="1.1" xmlns="http://www.w3.org/2000/svg" width="766" height="766">
<path d="M0 0 C3.70025948 0.00250203 7.40049531 -0.00658942 11.10074568 -0.01403749 C18.32310515 -0.02669221 25.5454273 -0.02858976 32.76779599 -0.02623723 C38.64858295 -0.0244432 44.52935871 -0.02622674 50.41014433 -0.03046167 C51.25196364 -0.03105686 52.09378294 -0.03165205 52.96111193 -0.03226527 C54.67213123 -0.03347722 56.38315054 -0.03469135 58.09416984 -0.03590765 C74.08861336 -0.04674801 90.08303573 -0.04463759 106.07748042 -0.0385228 C120.6503879 -0.03335884 135.22322844 -0.04460163 149.79612269 -0.06362102 C164.8237926 -0.08308084 179.85143098 -0.0912411 194.87911355 -0.08749777 C203.29019827 -0.08559775 211.70122608 -0.08795469 220.1123004 -0.10221231 C227.27439006 -0.1142317 234.43638781 -0.1154147 241.59847899 -0.10342214 C245.23927777 -0.09760591 248.87990935 -0.0962272 252.52069616 -0.10842454 C277.20138594 -0.18529158 301.36017235 1.11139031 325.10512495 8.27610838 C325.90547163 8.51281249 326.70581831 8.74951659 327.53041792 8.99339354 C355.1134671 17.33604068 379.20280758 32.64761645 400.10512495 52.27610838 C400.66361128 52.79527831 401.22209761 53.31444823 401.79750776 53.84935057 C438.5138413 88.23511533 457.23939778 136.5065611 459.10512495 186.27610838 C459.28507559 195.11227023 459.25368506 203.95158348 459.25050867 212.78920257 C459.25030248 216.37632828 459.25584399 219.96344624 459.26056623 223.55056822 C459.26882709 230.56070608 459.27161901 237.57083553 459.27217861 244.58097786 C459.27265602 250.28789879 459.27472189 255.99481698 459.27787924 261.70173705 C459.28667389 277.93185191 459.29130056 294.16196019 459.29054876 310.39207745 C459.29048883 311.70099844 459.29048883 311.70099844 459.29042768 313.03636229 C459.29036636 314.34690768 459.29036636 314.34690768 459.2903038 315.68392873 C459.28989782 329.82590824 459.29945837 343.96786108 459.31356605 358.10983288 C459.32798422 372.67967059 459.33483324 387.24949533 459.33397228 401.81934035 C459.33364214 409.97944069 459.33630771 418.13951306 459.34715033 426.29960692 C459.35632737 433.24998455 459.35837229 440.20032154 459.3516409 447.15070266 C459.34841138 450.68574986 459.3481868 454.22071943 459.35699415 457.75575888 C459.4733211 515.0199488 446.90535464 566.51462842 406.46987104 608.84397948 C405.15564028 610.22309891 403.85851834 611.61846051 402.5621562 613.01438963 C370.01653083 647.03712357 322.49577367 665.77467499 275.85899878 667.3884331 C267.61413351 667.56023659 259.36854976 667.55268803 251.12229562 667.53755772 C247.40988467 667.53296835 243.69749131 667.54004858 239.98508406 667.54551756 C232.7406705 667.55434511 225.49629872 667.55251947 218.25188363 667.54669228 C212.35674378 667.54214939 206.46161553 667.54157416 200.56647444 667.54373991 C199.72292279 667.54404638 198.87937115 667.54435285 198.01025733 667.5446686 C196.29584364 667.54530814 194.58142995 667.54595657 192.86701626 667.54661378 C176.8441387 667.55229762 160.82128414 667.54578988 144.79841036 667.53501305 C131.09220606 667.52607932 117.38603566 667.52763191 103.67983198 667.53685057 C87.70875079 667.54758775 71.73768968 667.55174848 55.76660538 667.54562604 C54.05899541 667.54498904 52.35138544 667.5443603 50.64377546 667.54373991 C49.38397368 667.54327709 49.38397368 667.54327709 48.09872136 667.54280491 C42.22033233 667.54108828 36.34195619 667.54397062 30.46356916 667.54869902 C23.2859508 667.55434636 16.1083761 667.55271133 8.93076265 667.54213753 C5.278591 667.53693211 1.62649177 667.5347348 -2.02567911 667.54143584 C-22.20053087 667.57532818 -41.92745312 667.12213553 -61.64487505 662.52610838 C-62.79826372 662.26080321 -63.95165239 661.99549803 -65.13999224 661.72215331 C-74.09271523 659.59597598 -82.49473383 657.04771669 -90.89487505 653.27610838 C-92.2089937 652.69385497 -92.2089937 652.69385497 -93.54966021 652.09983885 C-106.06243064 646.4985228 -117.89217127 640.48309409 -128.89487505 632.27610838 C-129.50685747 631.82203612 -130.11883989 631.36796385 -130.74936724 630.90013182 C-137.97519818 625.49103851 -144.70884845 619.87251022 -150.89487505 613.27610838 C-151.71987505 612.45110838 -152.54487505 611.62610838 -153.39487505 610.77610838 C-154.21987505 609.95110838 -155.04487505 609.12610838 -155.89487505 608.27610838 C-156.44272661 607.77466307 -156.99057817 607.27321776 -157.5550313 606.75657713 C-191.16081367 575.08295474 -206.51077141 525.82402118 -208.00872111 480.85868633 C-208.18044646 472.57435289 -208.18155002 464.2894659 -208.17098343 456.00371838 C-208.168474 452.30150498 -208.17758143 448.59931489 -208.18502092 444.89711058 C-208.19765377 437.67783873 -208.19957617 430.45860426 -208.19722066 423.23932321 C-208.19542489 417.36240471 -208.19721381 411.4854974 -208.2014451 405.60858023 C-208.20233789 404.34559481 -208.20233789 404.34559481 -208.20324871 403.05709453 C-208.20446067 401.34566836 -208.2056748 399.63424219 -208.20689108 397.92281603 C-208.21772202 381.93891149 -208.21562496 365.95502814 -208.20950624 349.97112244 C-208.20433755 335.4035211 -208.21559925 320.83598664 -208.23460446 306.26839853 C-208.25405407 291.24290332 -208.26222665 276.21743964 -208.2584812 261.19193178 C-208.25658037 252.7831911 -208.25894675 244.37450733 -208.27319574 235.96577704 C-208.28520169 228.80955852 -208.28641236 221.653432 -208.27440558 214.497212 C-208.26858152 210.85866537 -208.26723374 207.2202862 -208.27940798 203.58175147 C-208.34443633 182.72343531 -207.87680063 161.61669864 -202.14487505 141.40110838 C-201.76081499 139.99526488 -201.76081499 139.99526488 -201.36899614 138.56102049 C-187.7779184 90.32866956 -155.85230753 49.48077941 -112.34995317 24.63743651 C-76.67597481 4.85639998 -40.19214454 -0.05108518 0 0 Z M-82.89487505 79.27610838 C-83.84362505 79.79302245 -84.79237505 80.30993651 -85.76987505 80.84251463 C-111.01757242 95.32049109 -129.95114258 119.973224 -139.26987505 147.33860838 C-139.6095833 148.32607054 -139.6095833 148.32607054 -139.95615435 149.33348143 C-140.68769465 151.63091937 -141.29334104 153.94092517 -141.89487505 156.27610838 C-142.14847607 157.23053895 -142.40207708 158.18496951 -142.66336298 159.16832221 C-145.77694461 172.93201848 -145.32379387 186.88898309 -145.28704906 200.92305219 C-145.28019683 204.80183112 -145.29077013 208.68057111 -145.29898882 212.55934203 C-145.31226394 220.13786289 -145.30947613 227.71629415 -145.3007509 235.29481839 C-145.2939491 241.46038403 -145.29306837 247.62592473 -145.29632235 253.79149306 C-145.29678204 254.6722438 -145.29724174 255.55299455 -145.29771537 256.46043471 C-145.29867465 258.25022701 -145.29964729 260.0400193 -145.30063315 261.82981159 C-145.30916908 278.5770216 -145.29938172 295.32418219 -145.28323205 312.07138409 C-145.26983519 326.40706563 -145.27215525 340.74267425 -145.28598833 355.07835448 C-145.30208408 371.76648023 -145.30834037 388.45456275 -145.29915154 405.14269519 C-145.298196 406.92616085 -145.29725288 408.70962651 -145.29632235 410.49309218 C-145.29585952 411.37035484 -145.29539669 412.24761751 -145.29491984 413.15146389 C-145.29234156 419.30075866 -145.29667583 425.45002576 -145.30376101 431.59931624 C-145.31222097 439.10612166 -145.30980242 446.61283312 -145.29391877 454.11962794 C-145.2860953 457.94167449 -145.28284163 461.76356503 -145.29286623 465.58561003 C-145.3841855 503.63267586 -138.30765922 538.18813249 -110.89487505 566.27610838 C-110.01702349 567.20423338 -109.13917192 568.13235838 -108.2347188 569.08860838 C-87.88368387 590.1552212 -58.39315617 603.40790434 -29.02672458 604.37008202 C-25.67806674 604.41046645 -22.33072235 604.41899599 -18.98181963 604.41655028 C-17.70121656 604.4195214 -16.4206135 604.42249252 -15.10120428 604.42555368 C-11.56672026 604.4335713 -8.03225662 604.43541031 -4.49776459 604.43615115 C-0.6774773 604.43801094 3.14279964 604.44556297 6.96308088 604.45228636 C15.30859739 604.4658339 23.65410907 604.47188909 31.99963474 604.47629702 C37.21859764 604.47906606 42.43755871 604.48330465 47.65652037 604.48780119 C62.12853774 604.49999023 76.60055365 604.51028959 91.07257605 604.51367629 C92.46037871 604.51400563 92.46037871 604.51400563 93.87621779 604.51434164 C94.80353978 604.51455992 95.73086177 604.51477819 96.68628442 604.51500309 C98.56515575 604.51544654 100.44402707 604.5158931 102.32289839 604.51634276 C103.72085375 604.5166749 103.72085375 604.5166749 105.14705063 604.51701376 C120.22977111 604.52095716 135.31244314 604.53839885 150.39514492 604.56170228 C165.90946376 604.58547747 181.42375836 604.59788097 196.93809569 604.5990442 C205.63696584 604.59995762 214.33577288 604.60562512 223.03462553 604.62386382 C230.44567411 604.63934844 237.85664008 604.64433646 245.26770179 604.63612571 C249.04122696 604.63224828 252.81458622 604.63300429 256.58809042 604.64718306 C296.19550947 604.78709191 330.52270936 597.31441809 359.65102339 568.72190917 C360.1308769 568.24479491 360.61073042 567.76768065 361.10512495 567.27610838 C361.58755659 566.79770506 362.06998823 566.31930174 362.56703901 565.82640135 C369.65654861 558.69636665 375.24341572 551.11104199 380.10512495 542.27610838 C380.44140913 541.67846678 380.77769331 541.08082518 381.12416792 540.46507323 C385.48789122 532.63742679 388.86039714 524.7261762 391.48012495 516.15110838 C391.71876265 515.37694579 391.95740034 514.60278319 392.20326948 513.80516112 C395.50277068 502.32609386 396.40444116 490.67282562 396.35909224 478.77955687 C396.36377221 476.85519437 396.36377221 476.85519437 396.36854672 474.89195585 C396.3768055 471.37434578 396.37281064 467.85684585 396.36657429 464.33923566 C396.3620137 460.52863531 396.36905134 456.71805275 396.37453413 452.90745604 C396.3833921 445.45902329 396.38152208 438.01063103 396.37570885 430.56219675 C396.37117746 424.50335887 396.37058582 418.44453228 396.37275648 412.38569319 C396.37306295 411.52074619 396.37336941 410.65579918 396.37368517 409.76464166 C396.37432467 408.00705684 396.3749731 406.24947202 396.37563035 404.4918872 C396.38132329 388.03947701 396.3747924 371.58708916 396.36402962 355.13468264 C396.35509823 341.04623394 396.35664477 326.95781821 396.36586714 312.8693701 C396.3765936 296.47573707 396.38077073 280.08212359 396.37464261 263.68848753 C396.37400557 261.93704339 396.37337683 260.18559925 396.37275648 258.43415511 C396.37244793 257.5726057 396.37213938 256.7110563 396.37182148 255.82339934 C396.37010142 249.77939322 396.37299478 243.73539959 396.37771559 237.6913954 C396.38335103 230.31479157 396.38175249 222.93823024 396.3711541 215.56163122 C396.36593251 211.80468365 396.3637799 208.04780671 396.3704524 204.29085982 C396.59191326 178.42017537 396.59191326 178.42017537 391.85512495 153.08860838 C391.63824018 152.33724608 391.42135542 151.58588377 391.19789839 150.81175292 C389.14466049 143.96421912 386.4235789 137.61065147 383.10512495 131.27610838 C382.78559858 130.64994627 382.46607222 130.02378417 382.13686323 129.37864745 C376.92490172 119.23203544 370.88319987 110.60895954 363.10512495 102.27610838 C361.86762495 100.93419432 361.86762495 100.93419432 360.60512495 99.56517088 C339.86742473 77.96339982 310.278778 64.16644068 280.23697448 63.18213475 C276.88831664 63.14175032 273.54097226 63.13322078 270.19206953 63.13566649 C268.91146646 63.13269537 267.6308634 63.12972425 266.31145418 63.12666309 C262.77697016 63.11864547 259.24250652 63.11680646 255.70801449 63.11606562 C251.8877272 63.11420583 248.06745026 63.1066538 244.24716902 63.09993041 C235.90165251 63.08638286 227.55614083 63.08032768 219.21061516 63.07591975 C213.99165226 63.07315071 208.77269119 63.06891211 203.55372953 63.06441557 C189.08171216 63.05222654 174.60969625 63.04192718 160.13767385 63.03854048 C159.21247208 63.03832092 158.2872703 63.03810135 157.33403211 63.03787513 C156.40671012 63.03765685 155.47938813 63.03743858 154.52396548 63.03721368 C152.64509416 63.03677023 150.76622283 63.03632367 148.88735151 63.03587401 C147.95538127 63.03565258 147.02341103 63.03543115 146.06319927 63.03520301 C130.98047879 63.03125961 115.89780676 63.01381792 100.81510498 62.99051449 C85.30078614 62.9667393 69.78649155 62.9543358 54.27215421 62.95317256 C45.57328406 62.95225915 36.87447702 62.94659165 28.17562437 62.92835295 C20.76457579 62.91286833 13.35360982 62.9078803 5.94254811 62.91609105 C2.16902294 62.91996849 -1.60433631 62.91921248 -5.37784052 62.90503371 C-33.61377077 62.80519249 -57.88818634 65.58831045 -82.89487505 79.27610838 Z " fill="#FFFFFF" transform="translate(256.89487504959106,48.723891615867615)"/>
<path d="M0 0 C2.44526073 2.15645041 4.81635908 4.36698674 7.16796875 6.625 C8.50408203 7.88376953 8.50408203 7.88376953 9.8671875 9.16796875 C34.88460106 33.34797934 51.34857243 66.440864 57.16796875 100.625 C57.47541016 102.41744141 57.47541016 102.41744141 57.7890625 104.24609375 C64.36931463 150.03557238 53.47791471 195.37404053 26.01171875 232.54296875 C24.12166983 234.96178135 22.17809233 237.30531739 20.16796875 239.625 C19.4615625 240.44097656 18.75515625 241.25695312 18.02734375 242.09765625 C15.77719482 244.6428422 13.48480656 247.14044497 11.16796875 249.625 C10.44351562 250.41519531 9.7190625 251.20539063 8.97265625 252.01953125 C-13.7313458 275.83949272 -44.05368618 290.4800649 -75.83203125 297.625 C-76.82928223 297.87056641 -76.82928223 297.87056641 -77.84667969 298.12109375 C-101.1232377 303.77380528 -128.7558426 302.4050442 -151.83203125 296.625 C-153.12318848 296.30354004 -153.12318848 296.30354004 -154.44042969 295.97558594 C-182.18358637 288.82378532 -207.71137971 275.04889836 -228.3125 255.09326172 C-229.88911248 253.56984471 -231.48534771 252.06874893 -233.08203125 250.56640625 C-261.78994973 223.15434602 -280.13959873 182.53958537 -282.0090332 142.86889648 C-282.39474513 118.49220991 -281.23011225 95.78111224 -272.83203125 72.625 C-272.39117187 71.39910156 -271.9503125 70.17320312 -271.49609375 68.91015625 C-265.85810545 54.06760693 -258.35229639 40.33547744 -248.83203125 27.625 C-248.19394531 26.76261719 -247.55585938 25.90023437 -246.8984375 25.01171875 C-235.68756473 10.61022722 -222.19117769 -2.49059537 -206.83203125 -12.375 C-206.16880859 -12.80216309 -205.50558594 -13.22932617 -204.82226562 -13.66943359 C-183.31104184 -27.30438068 -160.06072367 -35.85765973 -134.83203125 -39.375 C-134.17090332 -39.4692627 -133.50977539 -39.56352539 -132.82861328 -39.66064453 C-84.57595774 -45.85711466 -36.99046816 -31.02097192 0 0 Z M-191.40283203 54.12695312 C-210.37083278 74.00868401 -221.46874578 100.69147866 -222.14453125 128.1875 C-222.07475627 130.0016495 -221.9662345 131.8144762 -221.83203125 133.625 C-221.75082031 134.93210937 -221.66960937 136.23921875 -221.5859375 137.5859375 C-219.63314884 162.89610746 -209.61691556 185.65578143 -192.83203125 204.625 C-191.74148438 205.86636719 -191.74148438 205.86636719 -190.62890625 207.1328125 C-174.38062266 224.40413617 -150.27331286 236.44161608 -126.83203125 239.625 C-126.02894531 239.73457031 -125.22585938 239.84414063 -124.3984375 239.95703125 C-121.87644353 240.25211635 -119.3657934 240.46077468 -116.83203125 240.625 C-115.6409375 240.70621094 -115.6409375 240.70621094 -114.42578125 240.7890625 C-84.82079594 241.79417003 -55.55899874 228.89087934 -34.14624023 208.98193359 C-13.89091134 189.37566306 -2.02717524 161.59200307 -0.796875 133.53515625 C-1.05059736 105.31559208 -10.04740447 77.56882965 -29.69140625 56.90625 C-31.83203125 54.625 -31.83203125 54.625 -34.234375 51.64453125 C-51.04270127 32.10643169 -79.24190994 22.08369612 -104.20703125 19.75 C-137.36506459 18.33450231 -168.10558723 30.61669592 -191.40283203 54.12695312 Z " fill="#FFFFFF" transform="translate(493.83203125,252.375)"/>
<path d="M0 0 C8.21206124 5.90499386 14.68490396 13.7936758 17.13671875 23.72265625 C19.00976267 35.27037919 18.21628123 46.83892507 12.078125 56.984375 C4.42037585 67.56275406 -5.62857744 73.27770806 -18.4140625 75.4921875 C-29.62680299 76.29309753 -39.61910619 73.46379921 -48.4140625 66.4921875 C-49.4659375 65.7496875 -50.5178125 65.0071875 -51.6015625 64.2421875 C-59.77300086 56.25233666 -63.39168067 45.89170987 -63.8515625 34.6171875 C-63.47385888 22.9385915 -59.34375203 13.05568881 -51.4140625 4.4921875 C-48.59122135 2.05081137 -45.71240023 0.22492911 -42.4140625 -1.5078125 C-41.7128125 -1.91902344 -41.0115625 -2.33023438 -40.2890625 -2.75390625 C-28.1656559 -8.83665713 -11.22284574 -7.0097386 0 0 Z " fill="#FFFFFF" transform="translate(583.4140625,170.5078125)"/>
</svg>
